# xmcd CD database file
#
# Track frame offsets:
#	150
#	31752
#	68435
#	91705
#	113972
#	132517
#	154030
#	176120
#	192972
#	216700
#	232190
#	259720
#	280740
#	303385
#
# Disc length: 4324 seconds
#
# Revision: 0
# Processed by: cddbd v1.4PL0 Copyright (c) Steve Scherf et al.
# Submitted via: Feurio! 1.65 - http://www.feurio.com
#
DISCID=c610e20e
DTITLE=Joe "Guitar" Hughes - Down and Depressed: Dangerous
DYEAR=1993
DGENRE=Blues
TTITLE0=Big Boss Man
TTITLE1=Put The Crack Down Pt. 1 and 2
TTITLE2=Dowling And Holman
TTITLE3=You Didn't Want Me
TTITLE4=I Wanna Know
TTITLE5=Now I'm Mad
TTITLE6=Don't Take It So Hard
TTITLE7=Okie Dokie Stomp
TTITLE8=Send Me Someone To Love
TTITLE9=Pitbull
TTITLE10=Don't Throw Your Love On Me So Strong
TTITLE11=Something On Your Mind
TTITLE12=Baby, What You Want Me To Do
TTITLE13=Dangerous Situation
EXTD=ARD Munich records NETCD 0044
EXTT0=
EXTT1=
EXTT2=
EXTT3=
EXTT4=
EXTT5=
EXTT6=
EXTT7=
EXTT8=
EXTT9=
EXTT10=
EXTT11=
EXTT12=
EXTT13=
PLAYORDER=
